<?xml version="1.0" standalone="no"?>
<!DOCTYPE svg PUBLIC "-//W3C//DTD SVG 20010904//EN"
 "http://www.w3.org/TR/2001/REC-SVG-20010904/DTD/svg10.dtd">
<svg version="1.0" xmlns="http://www.w3.org/2000/svg"
 width="512.000000pt" height="512.000000pt" viewBox="0 0 512.000000 512.000000"
 preserveAspectRatio="xMidYMid meet">

<g transform="translate(0.000000,512.000000) scale(0.100000,-0.100000)"
fill="#000000" stroke="none">
<path d="M3196 5060 c94 -53 146 -145 147 -254 2 -160 -129 -298 -283 -299
-30 0 -139 4 -241 8 -254 11 -501 -20 -712 -89 -231 -76 -309 -137 -393 -310
-49 -102 -67 -195 -61 -324 6 -135 24 -192 94 -294 67 -100 83 -142 83 -223 0
-84 -43 -171 -111 -225 -63 -50 -108 -65 -194 -64 -60 0 -79 5 -130 32 l-60
33 60 -62 c33 -33 105 -98 160 -143 187 -155 322 -240 780 -496 477 -266 662
-387 783 -513 138 -145 147 -265 26 -378 -65 -60 -124 -94 -236 -134 -151 -53
-244 -70 -403 -69 -223 1 -410 55 -515 150 -64 58 -80 98 -80 201 -1 105 -20
218 -50 293 -27 70 -98 175 -146 220 l-38 35 33 -39 c125 -148 88 -366 -77
-459 -70 -39 -165 -48 -243 -22 -74 25 -159 110 -184 184 -52 158 38 337 194
383 58 17 147 14 194 -6 21 -8 37 -13 37 -11 0 11 -94 56 -158 75 -65 20 -90
22 -205 18 -113 -4 -144 -9 -217 -35 -198 -68 -322 -201 -382 -408 -19 -66
-23 -104 -23 -215 0 -148 12 -226 57 -370 141 -446 503 -848 956 -1062 291
-138 590 -197 936 -185 463 15 880 163 1233 436 535 415 763 1024 598 1596
-34 117 -119 295 -200 416 -82 124 -98 137 -72 61 44 -131 -14 -274 -142 -350
-34 -20 -61 -26 -121 -30 -85 -5 -129 5 -186 44 l-37 25 -51 -22 c-71 -32
-172 -32 -241 -1 -149 68 -220 239 -160 384 8 19 -58 66 -285 202 -163 97
-220 150 -245 227 -25 73 -16 173 18 232 69 117 220 186 323 147 40 -16 43 -3
3 14 -83 35 -357 200 -391 235 -44 46 -55 94 -38 155 13 49 46 88 92 112 26
14 52 16 138 11 164 -8 298 -48 407 -123 95 -65 222 -104 343 -104 227 0 431
139 535 365 46 99 60 165 59 280 0 180 -59 311 -200 444 -164 156 -418 260
-794 325 -34 6 -33 5 16 -24z"/>
</g>
</svg>
